<svg width="85" height="85" viewBox="0 0 85 85" fill="none" xmlns="http://www.w3.org/2000/svg">
<path d="M25.9951 29.657C26.2713 29.9284 26.634 30.0647 26.9967 30.0647C27.3593 30.0647 27.722 29.9284 27.9982 29.657C28.5522 29.1129 28.5522 28.2334 27.9982 27.6893C26.5603 26.2755 26.5603 23.9766 27.9982 22.5628C29.2307 21.3521 29.9107 19.7434 29.9107 18.0318C29.9107 16.3202 29.2322 14.7115 27.9982 13.5009C27.4443 12.9567 26.549 12.9567 25.9951 13.5009C25.4412 14.045 25.4412 14.9244 25.9951 15.4685C26.6921 16.1532 27.0774 17.0633 27.0774 18.0318C27.0774 19.0003 26.6935 19.9104 25.9951 20.5951C23.4522 23.093 23.4522 27.1591 25.9951 29.657Z" fill="#41403C"/>
<path d="M57.163 29.657C57.4393 29.9284 57.802 30.0647 58.1646 30.0647C58.5273 30.0647 58.89 29.9284 59.1662 29.657C59.7201 29.1129 59.7201 28.2334 59.1662 27.6893C57.7283 26.2755 57.7283 23.9766 59.1662 22.5628C60.3987 21.3521 61.0787 19.7434 61.0787 18.0318C61.0787 16.3202 60.4001 14.7115 59.1662 13.5009C58.6123 12.9567 57.717 12.9567 57.163 13.5009C56.6091 14.045 56.6091 14.9244 57.163 15.4685C57.86 16.1532 58.2454 17.0633 58.2454 18.0318C58.2454 19.0003 57.8615 19.9104 57.163 20.5951C54.6201 23.093 54.6201 27.1591 57.163 29.657Z" fill="#41403C"/>
<path d="M41.5791 21.3074C41.8553 21.5788 42.218 21.7151 42.5806 21.7151C42.9433 21.7151 43.306 21.5788 43.5822 21.3074C44.1361 20.7633 44.1361 19.8838 43.5822 19.3397C42.1443 17.9259 42.1443 15.627 43.5822 14.2132C44.8147 13.0025 45.4947 11.3938 45.4947 9.6822C45.4947 7.97057 44.8161 6.36191 43.5822 5.15124C43.0283 4.60714 42.133 4.60714 41.5791 5.15124C41.0251 5.69535 41.0251 6.57482 41.5791 7.11893C42.2761 7.80358 42.6614 8.71367 42.6614 9.6822C42.6614 10.6507 42.2775 11.5608 41.5791 12.2455C39.0361 14.7434 39.0361 18.8095 41.5791 21.3074Z" fill="#41403C"/>
<path d="M35.9063 40.5185C36.0097 40.5185 36.1145 40.5074 36.2193 40.4851C38.2565 40.0342 40.3631 39.806 42.4824 39.806C42.4881 39.806 42.4938 39.806 42.5008 39.806C43.2828 39.806 43.9175 39.1839 43.9175 38.4156C43.9175 37.646 43.2843 37.0225 42.5008 37.0225C42.4952 37.0225 42.4881 37.0225 42.481 37.0225C40.1534 37.0225 37.8372 37.2744 35.596 37.7698C34.8324 37.9382 34.3536 38.6828 34.525 39.433C34.6752 40.0801 35.2588 40.5185 35.9063 40.5185Z" fill="#41403C"/>
<path d="M13.9126 63.4384C13.999 63.4551 14.084 63.4621 14.1676 63.4621C14.8391 63.4621 15.4355 62.9917 15.5602 62.321C17.0321 54.3918 21.897 47.3365 28.5737 43.4513C29.2466 43.0602 29.469 42.2058 29.071 41.5448C28.6715 40.8838 27.803 40.6653 27.1301 41.0564C19.7578 45.3466 14.3915 53.1088 12.7736 61.82C12.632 62.577 13.142 63.3007 13.9126 63.4384Z" fill="#41403C"/>
<path d="M78.8007 61.5463C76.2337 46.7386 64.4824 34.9728 49.5224 32.1229C49.5465 31.9002 49.5833 31.6762 49.5833 31.4549C49.5833 27.6184 46.4058 24.4971 42.5 24.4971C38.5942 24.4971 35.4167 27.6184 35.4167 31.4549C35.4167 31.6762 35.4521 31.9002 35.4776 32.1229C20.5176 34.9728 8.76633 46.7386 6.19933 61.5463C3.2385 63.1925 0 65.6153 0 68.333C0 75.4092 21.9753 80.1614 42.5 80.1614C63.0247 80.1614 85 75.4092 85 68.333C85 65.6153 81.7615 63.1925 78.8007 61.5463ZM38.2585 31.6957C38.2528 31.615 38.25 31.5343 38.25 31.4563C38.25 29.1547 40.1568 27.2816 42.5 27.2816C44.8432 27.2816 46.75 29.1547 46.75 31.4563C46.75 31.5356 46.7472 31.615 46.7415 31.6957C46.6749 31.6887 46.6083 31.6859 46.5432 31.679C46.0558 31.6261 45.5657 31.5885 45.0727 31.5551C44.8913 31.5426 44.7114 31.5245 44.5301 31.5148C43.8586 31.4786 43.1828 31.4577 42.5014 31.4577C41.82 31.4577 41.1442 31.4786 40.4727 31.5148C40.2914 31.5245 40.1115 31.5426 39.9302 31.5551C39.4372 31.5885 38.947 31.6275 38.4597 31.679C38.3917 31.6859 38.3251 31.6873 38.2585 31.6957ZM37.3986 34.6152C38.1593 34.5039 38.9243 34.4232 39.6922 34.3619C39.8494 34.3494 40.0067 34.3383 40.1639 34.3271C41.7194 34.2242 43.282 34.2242 44.8375 34.3271C44.9947 34.3383 45.152 34.3494 45.3092 34.3619C46.0771 34.4232 46.8421 34.5039 47.6028 34.6152C62.3617 36.8069 74.0336 48.3528 76.1515 62.8864C76.2167 63.3331 76.2691 63.7812 76.3158 64.2293C76.3314 64.3837 76.3527 64.5368 76.3668 64.6913C76.4221 65.3077 76.4632 65.9242 76.483 66.5407C54.2272 71.6074 30.7757 71.6074 8.51983 66.5407C8.54108 65.9242 8.58075 65.3077 8.636 64.6913C8.65017 64.5368 8.67 64.3837 8.687 64.2293C8.73375 63.7798 8.78617 63.3317 8.85133 62.8864C10.9678 48.3528 22.6397 36.8055 37.3986 34.6152ZM42.5 77.3782C18.2807 77.3782 2.83333 71.4376 2.83333 68.333C2.83333 67.8 3.50483 66.6255 5.75733 65.0934C5.75167 65.1727 5.7545 65.2507 5.74883 65.33C5.70067 66.0926 5.66667 66.8607 5.66667 67.6372V68.7338L6.75325 68.9912C18.4464 71.7465 30.4739 73.127 42.5 73.127C54.5261 73.127 66.5536 71.7479 78.2467 68.9912L79.3333 68.7338V67.6372C79.3333 66.8607 79.2993 66.094 79.2512 65.33C79.2455 65.2507 79.2483 65.1727 79.2427 65.0934C81.4952 66.6255 82.1667 67.8 82.1667 68.333C82.1667 71.4376 66.7193 77.3782 42.5 77.3782Z" fill="#41403C"/>
</svg>
