<svg width="90" height="91" viewBox="0 0 90 91" fill="none" xmlns="http://www.w3.org/2000/svg">
<g clip-path="url(#clip0_343_1255)">
<path d="M66.6695 45.1687C66.4794 44.5434 65.9061 44.1132 65.2524 44.1056C64.5917 44.0972 64.0154 44.5146 63.8111 45.1355L50.4819 85.5911C50.2378 86.3318 50.6022 87.1356 51.3197 87.4402C55.5772 89.2481 60.1477 90.1519 64.7183 90.1519C69.2888 90.1519 73.8595 89.2481 78.1168 87.4402C78.8221 87.1408 79.1881 86.3573 78.9652 85.6243L66.6695 45.1687ZM53.7711 85.1901L65.1774 50.5706L75.696 85.1787C68.6597 87.81 60.8102 87.8138 53.7711 85.1901Z" fill="#41403C"/>
<path d="M51.876 53.9448C49.868 55.5762 48.6266 57.8931 48.3805 60.4688C48.1345 63.0445 48.9145 65.5545 50.577 67.5369C50.8735 67.8905 51.2985 68.0726 51.7265 68.0726C52.0663 68.0726 52.4083 67.9577 52.689 67.7222C53.3235 67.1901 53.4065 66.2443 52.8743 65.6101C51.7321 64.2481 51.1961 62.5236 51.3653 60.754C51.5344 58.9845 52.3872 57.3929 53.7669 56.2721C55.7867 54.6313 57.0293 52.3002 57.2662 49.7087C57.5022 47.1278 56.7096 44.6206 55.035 42.6444C63.4023 40.9268 69.7932 32.123 69.7932 21.5518C69.7932 9.75201 61.8325 0.152344 52.0477 0.152344C45.5069 0.152344 39.4765 4.54238 36.4082 11.4308C36.0022 11.3972 35.5926 11.3786 35.1796 11.3786C25.3945 11.3786 17.4336 20.9781 17.4336 32.7776C17.4336 44.2912 25.0139 53.7085 34.4722 54.1581L35.8655 55.7921C37.0257 57.1524 37.5751 58.8822 37.4121 60.6625C37.2492 62.4428 36.3956 64.0442 35.0081 65.1715C33.0001 66.8031 31.7587 69.1197 31.5126 71.6954C31.2666 74.2712 32.0466 76.7811 33.7092 78.7636L38.8292 84.8686C39.1257 85.2222 39.5507 85.4045 39.9787 85.4045C40.3185 85.4045 40.6605 85.2895 40.9412 85.0541C41.5757 84.5219 41.6586 83.5762 41.1265 82.9419L36.0064 76.8369C34.8642 75.475 34.3283 73.7504 34.4974 71.9809C34.6665 70.2114 35.5193 68.6198 36.899 67.4989C38.9188 65.8581 40.1614 63.5271 40.3983 60.9358C40.6343 58.3552 39.8419 55.8483 38.1676 53.872C43.6395 52.7486 48.2656 48.595 50.8123 42.8977C50.9876 42.9123 51.1636 42.9224 51.3395 42.9308L52.7336 44.5656C53.8936 45.926 54.4429 47.6557 54.28 49.436C54.1171 51.2164 53.2635 52.8176 51.876 53.9448ZM52.0477 3.15086C60.1791 3.15086 66.7946 11.4054 66.7946 21.5518C66.7946 31.697 60.1791 39.9507 52.0477 39.9507C51.9983 39.9507 51.9492 39.9483 51.8998 39.9477C52.5631 37.705 52.9257 35.2916 52.9257 32.7776C52.9257 22.7518 47.1777 14.3158 39.4473 12.0057C42.1048 6.57498 46.9045 3.15086 52.0477 3.15086ZM35.1794 51.1782C27.0475 51.1782 20.4319 42.9238 20.4319 32.7776C20.4319 22.6315 27.0477 14.3771 35.1794 14.3771C43.3112 14.3771 49.927 22.6315 49.927 32.7776C49.9272 42.9236 43.3114 51.1782 35.1794 51.1782Z" fill="#41403C"/>
<path d="M64.21 67.3387C63.8657 66.5257 62.8684 66.1719 62.0934 66.6057C61.2326 67.0874 61.0855 68.274 61.765 68.9741C62.2533 69.4475 63.0036 69.5488 63.5923 69.2008C64.2252 68.8264 64.4906 68.0172 64.21 67.3387C64.172 67.2487 64.248 67.4306 64.21 67.3387Z" fill="#41403C"/>
<path d="M66.6386 75.6828C66.8715 76.2363 67.4188 76.6079 68.0219 76.6083C68.6342 76.6085 69.1957 76.2231 69.419 75.6544C69.6453 75.0781 69.4824 74.4004 69.0186 73.989C68.5376 73.5624 67.8196 73.4929 67.2653 73.8171C66.6308 74.1885 66.3507 75.0021 66.6386 75.6828C66.6766 75.7728 66.6006 75.5929 66.6386 75.6828Z" fill="#41403C"/>
<path d="M61.8094 82.131C61.5606 81.5433 60.9555 81.1613 60.315 81.2103C59.6883 81.2582 59.1501 81.701 58.9812 82.3059C58.6166 83.6105 60.1275 84.7109 61.2577 83.9521C61.846 83.5573 62.0803 82.7859 61.8094 82.131C61.7715 82.0411 61.8474 82.223 61.8094 82.131Z" fill="#41403C"/>
<path d="M10.3114 6.88249C9.72573 6.29698 8.7766 6.29698 8.19109 6.88249C7.60558 7.468 7.60558 8.41714 8.19109 9.00265L10.0901 10.9017C10.383 11.1946 10.7668 11.3409 11.1504 11.3409C11.534 11.3409 11.9178 11.1946 12.2107 10.9017C12.7962 10.3162 12.7962 9.36707 12.2107 8.78156L10.3114 6.88249Z" fill="#41403C"/>
<path d="M76.2668 15.2393C76.6504 15.2393 77.0342 15.093 77.3271 14.8001L79.2261 12.9011C79.8116 12.3156 79.8116 11.3664 79.2261 10.7809C78.6404 10.1954 77.6913 10.1954 77.1058 10.7809L75.2067 12.68C74.6212 13.2655 74.6212 14.2146 75.2067 14.8001C75.4996 15.093 75.8832 15.2393 76.2668 15.2393Z" fill="#41403C"/>
<path d="M56.7045 31.1105C56.9442 31.2524 57.2072 31.3198 57.4669 31.3198C57.9792 31.3198 58.4784 31.0571 58.7585 30.5842L60.1268 28.2731C60.5484 27.5607 60.3131 26.6409 59.6004 26.2191C58.8882 25.7975 57.9689 26.0326 57.5465 26.7453L56.1781 29.0563C55.7563 29.7692 55.9918 30.6887 56.7045 31.1105Z" fill="#41403C"/>
<path d="M25.3734 68.6384L23.4743 70.5374C22.8888 71.1229 22.8888 72.0723 23.4743 72.6576C23.7671 72.9502 24.151 73.0968 24.5346 73.0968C24.9182 73.0968 25.302 72.9504 25.5948 72.6576L27.4939 70.7585C28.0794 70.173 28.0794 69.2237 27.4939 68.6384C26.908 68.0528 25.9589 68.0528 25.3734 68.6384Z" fill="#41403C"/>
<path d="M10.095 45.9297C9.26677 45.9297 8.5957 46.601 8.5957 47.4289V50.1146C8.5957 50.9426 9.26677 51.6139 10.095 51.6139C10.9232 51.6139 11.5942 50.9426 11.5942 50.1146V47.4289C11.5942 46.601 10.923 45.9297 10.095 45.9297Z" fill="#41403C"/>
<path d="M80.7496 39.5703H78.0637C77.2355 39.5703 76.5645 40.2416 76.5645 41.0696C76.5645 41.8976 77.2355 42.5688 78.0637 42.5688H80.7496C81.5778 42.5688 82.2489 41.8976 82.2489 41.0696C82.2489 40.2416 81.5778 39.5703 80.7496 39.5703Z" fill="#41403C"/>
<path d="M33.4994 18.6885H30.8137C29.9855 18.6885 29.3145 19.3597 29.3145 20.1877C29.3145 21.0157 29.9855 21.687 30.8137 21.687H33.4994C34.3276 21.687 34.9986 21.0157 34.9986 20.1877C34.9986 19.3597 34.3276 18.6885 33.4994 18.6885Z" fill="#41403C"/>
</g>
<defs>
<clipPath id="clip0_343_1255">
<rect width="90" height="90" fill="white" transform="translate(0 0.152344)"/>
</clipPath>
</defs>
</svg>
