<svg width="25" height="25" viewBox="0 0 25 25" fill="none" xmlns="http://www.w3.org/2000/svg">
<path d="M12.5007 9.24487C10.7087 9.24487 9.24633 10.7073 9.24633 12.4993C9.24633 14.2913 10.7087 15.7537 12.5007 15.7537C14.2927 15.7537 15.7551 14.2913 15.7551 12.4993C15.7551 10.7073 14.2927 9.24487 12.5007 9.24487ZM22.2615 12.4993C22.2615 11.1516 22.2737 9.81616 22.198 8.47094C22.1223 6.90844 21.7659 5.52172 20.6233 4.37914C19.4783 3.23412 18.094 2.88012 16.5315 2.80444C15.1838 2.72875 13.8484 2.74096 12.5032 2.74096C11.1555 2.74096 9.82006 2.72875 8.47485 2.80444C6.91235 2.88012 5.52563 3.23657 4.38305 4.37914C3.23803 5.52416 2.88403 6.90844 2.80834 8.47094C2.73266 9.8186 2.74487 11.154 2.74487 12.4993C2.74487 13.8445 2.73266 15.1824 2.80834 16.5276C2.88403 18.0901 3.24047 19.4768 4.38305 20.6194C5.52807 21.7644 6.91235 22.1184 8.47485 22.1941C9.8225 22.2698 11.158 22.2576 12.5032 22.2576C13.8508 22.2576 15.1863 22.2698 16.5315 22.1941C18.094 22.1184 19.4807 21.762 20.6233 20.6194C21.7683 19.4744 22.1223 18.0901 22.198 16.5276C22.2761 15.1824 22.2615 13.8469 22.2615 12.4993ZM12.5007 17.5066C9.72973 17.5066 7.4934 15.2703 7.4934 12.4993C7.4934 9.72827 9.72973 7.49194 12.5007 7.49194C15.2717 7.49194 17.508 9.72827 17.508 12.4993C17.508 15.2703 15.2717 17.5066 12.5007 17.5066ZM17.7131 8.45629C17.0662 8.45629 16.5437 7.93383 16.5437 7.28686C16.5437 6.63989 17.0662 6.11743 17.7131 6.11743C18.3601 6.11743 18.8826 6.63989 18.8826 7.28686C18.8828 7.44049 18.8526 7.59264 18.7939 7.73461C18.7352 7.87658 18.6491 8.00557 18.5405 8.1142C18.4318 8.22283 18.3028 8.30897 18.1609 8.36767C18.0189 8.42637 17.8668 8.45649 17.7131 8.45629Z" fill="white"/>
</svg>
