<svg width="100" height="101" viewBox="0 0 100 101" fill="none" xmlns="http://www.w3.org/2000/svg">
<g clip-path="url(#clip0_343_1192)">
<path d="M99.16 83.4483C97.0102 82.7969 94.8449 82.1918 92.6669 81.6312V68.9474L92.5934 69.0135C92.6409 68.7253 92.6669 68.4298 92.6669 68.1283C92.6669 66.082 91.5341 64.2337 89.7109 63.3047L86.1898 61.5104V59.0352C86.1898 57.6725 85.4081 56.502 84.1497 55.9807C83.3641 55.6554 82.5308 55.6403 81.7809 55.9093L75.5027 49.6313C75.8115 49.6307 76.116 49.5042 76.3371 49.2832C76.5567 49.0638 76.6833 48.7585 76.6833 48.4488C76.6833 48.137 76.5564 47.8316 76.3371 47.6123C76.1156 47.3908 75.8126 47.2661 75.5006 47.2661C75.1886 47.2661 74.8834 47.3908 74.6638 47.6123C74.443 47.8312 74.3185 48.1357 74.3181 48.4466L73.4598 47.5884C73.76 47.588 74.0624 47.4721 74.2942 47.2424C74.7544 46.7801 74.7544 46.0317 74.2942 45.5694C73.8318 45.107 73.0835 45.107 72.6211 45.5694C72.3904 45.799 72.2751 46.1009 72.2747 46.4033L71.4169 45.5455C71.7171 45.5451 72.0194 45.4291 72.2513 45.1995C72.7115 44.7371 72.7115 43.9866 72.2513 43.5264C71.7889 43.0641 71.0406 43.0641 70.5782 43.5264C70.3475 43.7561 70.2322 44.058 70.2318 44.3604L69.8542 43.9828C69.6851 43.8137 69.5105 43.6542 69.3333 43.4989C69.3462 43.4993 69.3589 43.5028 69.3718 43.5028C69.6836 43.5028 69.9866 43.3759 70.2084 43.1566C70.4279 42.9351 70.5546 42.6297 70.5546 42.32C70.5546 42.0082 70.4277 41.7029 70.2084 41.4835C69.9869 41.262 69.6839 41.1373 69.3718 41.1373C69.0598 41.1373 68.7546 41.262 68.5351 41.4835C68.3157 41.7029 68.1891 42.0082 68.1891 42.32C68.1891 42.4368 68.2121 42.5508 68.2461 42.6611C64.1166 39.8877 58.4734 40.2943 54.7933 43.8761V35.1913H55.1159C55.769 35.1913 56.2986 34.6619 56.2986 34.0086C56.2986 33.3553 55.769 32.8258 55.1159 32.8258H54.7933V29.6613H58.6936C60.7339 29.6613 62.3941 28.0011 62.3941 25.9606C62.3941 23.92 60.7339 22.2601 58.6936 22.2601H54.9095C55.3133 21.5638 55.5458 20.7561 55.5458 19.8948C55.5458 17.2863 53.4235 15.1641 50.815 15.1641C48.2065 15.1641 46.0843 17.2863 46.0843 19.8948C46.0843 20.7561 46.3167 21.5638 46.7206 22.2601H42.9365C40.8961 22.2601 39.236 23.9202 39.236 25.9606C39.236 28.0011 40.8961 29.6613 42.9365 29.6613H46.8359V32.8258H46.5141C45.8611 32.8258 45.3314 33.3553 45.3314 34.0086C45.3314 34.6619 45.8611 35.1913 46.5141 35.1913H46.8359V72.3939H44.8876C44.2345 72.3939 43.7048 72.9234 43.7048 73.5767V76.7976C41.7378 76.9056 39.7734 77.0503 37.8124 77.2301L34.7616 71.9901C36.5189 70.8553 38.0801 69.4917 39.4153 67.9421L39.7291 68.181C39.9433 68.3442 40.1951 68.4232 40.4452 68.4232C40.8015 68.4232 41.154 68.2627 41.3866 67.9574C41.7827 67.4378 41.6825 66.6957 41.163 66.2998L40.8587 66.068C42.0045 64.3943 42.9139 62.5525 43.5582 60.5842L43.9497 60.6876C44.0512 60.7145 44.1527 60.7272 44.253 60.7272C44.7766 60.7272 45.2553 60.3766 45.3955 59.8466C45.5624 59.215 45.1858 58.5677 44.5544 58.4008L44.1743 58.3004C44.605 56.2734 44.7402 54.224 44.5899 52.2024L44.9815 52.1493C45.629 52.062 46.0828 51.4663 45.9955 50.819C45.9082 50.1715 45.3103 49.7176 44.6652 49.8051L44.2854 49.8565C43.9121 47.863 43.2528 45.9177 42.3165 44.0703L42.6681 43.8656C43.2324 43.5365 43.4233 42.8125 43.0943 42.2482C42.7651 41.6837 42.0412 41.493 41.477 41.822L41.1372 42.0198C40.0086 40.2819 38.6551 38.7372 37.1193 37.414L37.3597 37.0983C37.7554 36.5786 37.6545 35.8365 37.1346 35.441C36.6146 35.0455 35.8727 35.1462 35.4772 35.6661L35.2454 35.9709C33.5704 34.8242 31.7271 33.9142 29.7568 33.2699C29.8553 32.6749 29.487 32.0915 28.8919 31.9343C28.3018 31.7782 27.6971 32.0979 27.4849 32.6568C25.4557 32.2248 23.4044 32.0891 21.3807 32.2394L21.3273 31.8457C21.2394 31.1984 20.6441 30.7446 19.9962 30.833C19.3489 30.921 18.8954 31.5171 18.9833 32.1642L19.0347 32.5439C17.0413 32.917 15.096 33.5763 13.2488 34.5124L13.0443 34.1611C12.7161 33.5961 11.9916 33.4052 11.4271 33.7333C10.8626 34.0617 10.671 34.7858 10.9996 35.3505L11.1985 35.6922C9.44377 36.833 7.90642 38.1931 6.59981 39.7146L6.27639 39.4683C5.75663 39.0729 5.01451 39.1735 4.61904 39.6935C4.22336 40.2133 4.32422 40.9554 4.84419 41.3508L5.15966 41.591C3.99929 43.289 3.09417 45.1358 2.45957 47.0689L2.05572 46.9622C1.42413 46.796 0.777281 47.1727 0.610621 47.8045C0.443962 48.4363 0.82115 49.0832 1.45295 49.2496L1.84347 49.3526C1.42155 51.3435 1.27833 53.3957 1.42886 55.4461L1.02372 55.5009C0.376438 55.5889 -0.0768745 56.1848 0.0108635 56.8321C0.091505 57.4254 0.598794 57.8557 1.18135 57.8557C1.23425 57.8557 1.28801 57.852 1.34199 57.8447L1.73186 57.7918C2.09765 59.7646 2.74536 61.7129 3.68962 63.5797L3.3391 63.7838C2.77461 64.1122 2.58301 64.8362 2.91159 65.4009C3.13115 65.7786 3.52748 65.9893 3.93499 65.9893C4.13691 65.9893 4.34164 65.9375 4.52872 65.8287L4.8715 65.6291C6.01231 67.3839 7.37032 68.9236 8.89175 70.2302L8.64746 70.551C8.25135 71.0706 8.35156 71.8127 8.87111 72.2086C9.08529 72.3718 9.33711 72.4507 9.58721 72.4507C9.94354 72.4507 10.296 72.2903 10.5287 71.9849L10.7695 71.6688C12.4525 72.8189 14.2808 73.7208 16.1951 74.3545L14.4048 81.1361C11.5589 81.8307 8.72703 82.6038 5.94092 83.4485C5.31579 83.638 4.96268 84.2984 5.15214 84.9235C5.34202 85.5486 6.00285 85.9017 6.62712 85.7123C8.96358 85.0039 11.3331 84.348 13.7158 83.7461L13.4064 84.9179C13.2399 85.5495 13.6169 86.1966 14.2483 86.3632C14.3496 86.3899 14.4509 86.4028 14.5509 86.4028C15.0749 86.4028 15.5536 86.0518 15.6936 85.5215L16.3308 83.1079C17.501 82.8333 18.6726 82.5716 19.8437 82.3251C23.3481 81.5849 26.9365 80.9551 30.5093 80.4531C32.5105 80.1725 34.5183 79.9325 36.5303 79.7289L38.5964 83.2775C38.816 83.6549 39.2123 83.8655 39.6196 83.8655C39.8215 83.8655 40.0267 83.8137 40.2138 83.7046C40.7783 83.376 40.9695 82.652 40.6406 82.0875L39.1263 79.4863C47.636 78.7657 56.2124 78.7298 64.7224 79.3842C76.164 80.2639 87.52 82.3931 98.4746 85.7127C98.5888 85.7473 98.7043 85.7639 98.818 85.7639C99.3253 85.7639 99.7948 85.4347 99.9496 84.9239C100.138 84.2981 99.7851 83.6377 99.16 83.4483ZM33.5698 69.9429L27.3815 59.3141C27.4956 59.2234 27.6062 59.1287 27.7139 59.0315L37.5255 66.503C36.3811 67.8116 35.0564 68.9707 33.5698 69.9429ZM18.9816 56.1678C17.6901 53.9503 18.4436 51.0953 20.6611 49.8038C21.3961 49.3759 22.2006 49.1724 22.9954 49.1724C24.5988 49.1724 26.1617 50.0008 27.0249 51.4833C27.6505 52.5576 27.8204 53.8111 27.5034 55.0132C27.186 56.2151 26.4198 57.2217 25.3456 57.8473C23.1279 59.1389 20.273 58.3856 18.9816 56.1678ZM22.652 60.8321L24.3065 73.0518C23.8827 73.0797 23.4591 73.0941 23.0358 73.0941C21.7036 73.0939 20.379 72.9535 19.0825 72.6832L22.2206 60.796C22.3638 60.8125 22.5077 60.8248 22.652 60.8321ZM25.0011 60.5519C25.1039 60.5214 25.2067 60.4904 25.3086 60.4549L31.5161 71.1166C29.9437 71.892 28.3085 72.4324 26.6527 72.7501L25.0011 60.5519ZM38.971 64.6304L29.1762 57.1716C29.2362 57.0602 29.293 56.9469 29.3472 56.8321L41.2634 59.9782C40.7049 61.6426 39.9344 63.2043 38.971 64.6304ZM41.8819 57.6948L29.9859 54.5541C29.9994 54.4279 30.0087 54.3017 30.0153 54.1754L42.2363 52.5207C42.3511 54.2371 42.2367 55.9745 41.8819 57.6948ZM41.9341 50.1747L29.7338 51.8267C29.6979 51.7063 29.6581 51.5869 29.6156 51.4682L40.2654 45.2651C41.0475 46.8364 41.6068 48.4851 41.9341 50.1747ZM39.0885 43.2129L28.4569 49.4053C28.3769 49.3066 28.2943 49.2109 28.2098 49.1176L35.6807 39.3038C36.9754 40.4363 38.1229 41.7454 39.0885 43.2129ZM26.3488 47.657C26.2376 47.597 26.1245 47.5407 26.0106 47.4867L29.1566 35.5664C30.8209 36.1246 32.3823 36.8949 33.8083 37.8583L26.3488 47.657ZM22.9713 34.5451C24.2708 34.5451 25.577 34.68 26.8733 34.9473L23.7324 46.8482C23.6077 46.8351 23.4823 46.8256 23.3569 46.819L21.6991 34.5877C22.1221 34.5595 22.5464 34.5451 22.9713 34.5451ZM19.3534 34.8935L21.0076 47.0968C20.8863 47.1327 20.7656 47.1725 20.6456 47.2153L14.4408 36.5588C16.0127 35.7765 17.6634 35.2208 19.3534 34.8935ZM12.3907 37.7392L18.5823 48.3729C18.4842 48.4522 18.3892 48.5344 18.2963 48.6183L8.48489 41.1491C9.60355 39.8657 10.9097 38.7148 12.3907 37.7392ZM7.04367 43.025L16.8353 50.479C16.7753 50.59 16.7189 50.7029 16.6652 50.8169L4.74957 47.6729C5.29987 46.0366 6.06844 44.4709 7.04367 43.025ZM4.13347 49.9567L16.0258 53.0946C16.0125 53.2198 16.003 53.3454 15.9966 53.4714L3.77822 55.1274C3.66317 53.3877 3.78575 51.648 4.13347 49.9567ZM4.0795 57.4738L16.2742 55.8209C16.3101 55.9424 16.3499 56.0631 16.3929 56.1833L5.73792 62.3873C4.94935 60.7994 4.40034 59.147 4.0795 57.4738ZM6.91808 64.4371L17.5527 58.2449C17.6324 58.3434 17.7133 58.441 17.7976 58.5344L10.3287 68.3427C9.04487 67.2239 7.89373 65.9181 6.91808 64.4371ZM12.2047 69.7835L19.6603 59.993C19.7551 60.0442 19.85 60.0954 19.947 60.142L16.8002 72.0613C15.1827 71.5121 13.6354 70.7484 12.2047 69.7835ZM30.1803 78.1103C26.554 78.6197 22.9116 79.259 19.3554 80.0099C18.5745 80.1742 17.7933 80.3471 17.0125 80.5241L18.478 74.9723C19.9725 75.2927 21.5017 75.4592 23.0395 75.4592C23.5672 75.4592 24.0958 75.4377 24.6242 75.3988L24.679 75.803C24.759 76.3968 25.2665 76.8277 25.8495 76.8277C25.9022 76.8277 25.9555 76.8243 26.009 76.817C26.6563 76.7297 27.1103 76.134 27.023 75.4867L26.9701 75.0956C28.9255 74.7328 30.8564 74.0943 32.7079 73.1638L35.2254 77.4877C33.5403 77.6698 31.858 77.8752 30.1803 78.1103ZM86.1898 73.5421H87.253C88.3828 73.5421 89.4324 73.1937 90.3014 72.5995V79.6984C87.9377 79.0732 86.1898 76.9168 86.1898 74.3592V73.5421ZM88.6368 65.4121C89.6634 65.9351 90.3012 66.9759 90.3012 68.1281C90.3012 69.8089 88.9337 71.1766 87.2527 71.1766H86.1898V64.1651L88.6368 65.4121ZM83.2443 58.1662C83.3804 58.2225 83.8241 58.4518 83.8241 59.0352V74.3592C83.8241 76.6417 84.7995 78.6997 86.3543 80.1413C84.4834 79.7396 82.6046 79.3732 80.7197 79.0382V59.8706L82.2201 58.3707C82.6325 57.958 83.1082 58.1099 83.2443 58.1662ZM53.7454 58.4432C53.9882 58.7442 54.2469 59.0352 54.5243 59.3126C55.2133 60.0016 55.9834 60.5863 56.8178 61.0596C56.59 61.8353 56.4707 62.6473 56.4707 63.4778C56.4707 63.5126 56.4728 63.5473 56.4733 63.5821H56.4707V76.6009C55.5626 76.5789 54.654 76.5647 53.7454 76.5581V58.4432ZM58.836 69.3756C58.8826 69.4246 58.928 69.4745 58.976 69.5227C59.8346 70.3814 60.8445 71.0325 61.9444 71.4564V76.8288C60.909 76.7684 59.8727 76.717 58.836 76.6768V69.3756ZM60.6488 67.8501C59.4796 66.6811 58.836 65.1285 58.836 63.478C58.836 61.8275 59.4796 60.2749 60.6483 59.1064L60.7692 58.9855C61.9371 57.8176 63.4897 57.1746 65.1413 57.1746C66.7928 57.1746 68.3454 57.8178 69.5133 58.9855L73.8852 63.3576L69.3925 67.8503C68.2252 69.0184 66.673 69.6616 65.0215 69.6616C63.3699 69.6616 61.8169 69.0182 60.6488 67.8501ZM71.0657 69.5227L72.8844 67.7045V77.8436C71.8509 77.712 70.8161 77.5898 69.78 77.4782V70.5824C70.2369 70.2747 70.6677 69.9209 71.0657 69.5227ZM75.2498 65.3392L78.3544 62.2353V78.6347C77.3212 78.467 76.2864 78.3094 75.2498 78.1617V65.3392ZM56.3539 45.6554C59.6148 42.3947 64.9206 42.3944 68.1816 45.6554L79.8856 57.3594L75.558 61.685L71.1857 57.3127C69.5712 55.6982 67.4246 54.8089 65.1413 54.8089C62.8579 54.8089 60.7111 55.6981 59.097 57.3123L58.976 57.4331C58.5265 57.8826 58.1356 58.3744 57.802 58.8976C57.2225 58.5488 56.6844 58.1275 56.1967 57.64C54.6159 56.0592 53.7454 53.9591 53.7454 51.7263C53.7454 49.4941 54.6164 47.3929 56.1913 45.816L56.3539 45.6554ZM50.815 17.5293C52.1191 17.5293 53.1803 18.5904 53.1803 19.8946C53.1803 21.1988 52.1191 22.2599 50.815 22.2599C49.511 22.2599 48.4498 21.1988 48.4498 19.8946C48.4498 18.5904 49.5108 17.5293 50.815 17.5293ZM42.9365 27.2958C42.2004 27.2958 41.6015 26.6969 41.6015 25.9606C41.6015 25.2245 42.2004 24.6256 42.9365 24.6256H58.6934C59.4295 24.6256 60.0284 25.2245 60.0284 25.9606C60.0284 26.6969 59.4295 27.2958 58.6934 27.2958H42.9365ZM49.2013 29.6613H52.4279V32.8258H49.2013V29.6613ZM49.2013 35.1913H52.4279V47.0936C51.7754 48.454 51.4184 49.9468 51.3855 51.493L51.38 72.3939H49.2013V35.1913ZM46.0703 74.7594H51.3797V76.5589C49.6093 76.5718 47.8392 76.6146 46.0703 76.6858V74.7594ZM64.3099 76.9836V71.9957C64.5454 72.015 64.7824 72.0269 65.0215 72.0269C65.8434 72.0269 66.6466 71.9099 67.4145 71.6871V77.2397C66.5778 77.1621 65.7408 77.0892 64.903 77.0249C64.7056 77.0101 64.5075 76.998 64.3099 76.9836Z" fill="#41403C"/>
<path d="M26.1195 54.6482C26.3391 53.8157 26.2217 52.9476 25.7881 52.2038C25.355 51.4599 24.6581 50.9294 23.8259 50.7096C22.9932 50.4899 22.1255 50.6077 21.3817 51.0408C20.6376 51.4739 20.1069 52.1711 19.8873 53.0035C19.6678 53.836 19.7852 54.7039 20.2185 55.4477C20.8165 56.4745 21.8986 57.0481 23.0091 57.0481C23.5594 57.0481 24.1166 56.9072 24.6256 56.6109C25.3692 56.1776 25.8997 55.4806 26.1195 54.6482ZM23.8323 54.0445C23.774 54.266 23.6328 54.4514 23.4349 54.5665C23.0261 54.8043 22.5001 54.6654 22.2625 54.2572C22.1472 54.0594 22.1158 53.8284 22.1743 53.6069C22.2326 53.3854 22.3741 53.2001 22.5719 53.0848C22.7048 53.0076 22.8524 52.968 23.002 52.968C23.0754 52.968 23.1493 52.9775 23.222 52.9969C23.4435 53.0553 23.6289 53.1964 23.7441 53.3943C23.7441 53.3943 23.7441 53.3943 23.7444 53.3945C23.8594 53.5923 23.8908 53.8233 23.8323 54.0445Z" fill="#41403C"/>
<path d="M57.6534 56.3221C58.3065 56.3221 58.8362 55.7927 58.8362 55.1394V48.9601C58.8362 48.3068 58.3065 47.7773 57.6534 47.7773C57.0004 47.7773 56.4707 48.3068 56.4707 48.9601V55.1394C56.4707 55.7925 57.0004 56.3221 57.6534 56.3221Z" fill="#41403C"/>
<path d="M63.1281 59.666C62.475 59.666 61.9453 60.1955 61.9453 60.8488V66.1775C61.9453 66.8309 62.475 67.3603 63.1281 67.3603C63.7811 67.3603 64.3108 66.8309 64.3108 66.1775V60.8488C64.3108 60.1957 63.7814 59.666 63.1281 59.666Z" fill="#41403C"/>
<path d="M63.1281 53.8015C63.7811 53.8015 64.3108 53.2721 64.3108 52.6188V46.1788C64.3108 45.5255 63.7811 44.9961 63.1281 44.9961C62.475 44.9961 61.9453 45.5255 61.9453 46.1788V52.6188C61.9453 53.2721 62.475 53.8015 63.1281 53.8015Z" fill="#41403C"/>
<path d="M68.5968 66.1419C69.2499 66.1419 69.7795 65.6125 69.7795 64.9592V61.9357C69.7795 61.2824 69.2499 60.7529 68.5968 60.7529C67.9437 60.7529 67.4141 61.2824 67.4141 61.9357V64.9592C67.4141 65.6125 67.9437 66.1419 68.5968 66.1419Z" fill="#41403C"/>
<path d="M68.5968 53.9565C69.2499 53.9565 69.7795 53.4271 69.7795 52.7738V49.8937C69.7795 49.2404 69.2499 48.7109 68.5968 48.7109C67.9437 48.7109 67.4141 49.2404 67.4141 49.8937V52.7738C67.4141 53.4269 67.9437 53.9565 68.5968 53.9565Z" fill="#41403C"/>
<path d="M74.0675 57.9345C74.7206 57.9345 75.2503 57.405 75.2503 56.7517V55.2824C75.2503 54.6291 74.7206 54.0996 74.0675 54.0996C73.4144 54.0996 72.8848 54.6291 72.8848 55.2824V56.7517C72.8848 57.405 73.4142 57.9345 74.0675 57.9345Z" fill="#41403C"/>
<path d="M13.3971 22.0428C13.4373 22.6652 13.9539 23.1492 14.5773 23.1492H33.5136C34.0618 23.1492 34.5383 22.7727 34.6646 22.2392C34.7633 21.8228 34.8131 21.4057 34.8131 20.9988C34.8131 18.0344 32.4014 15.6227 29.437 15.6227C28.6773 15.6227 27.9406 15.7803 27.2597 16.0846C26.0867 14.7167 24.359 13.9023 22.5232 13.9023C20.205 13.9023 18.0677 15.2191 17.0013 17.2424C14.9222 17.7037 13.3838 19.5586 13.3838 21.7515C13.3838 21.8366 13.3885 21.92 13.3945 22.0037L13.3971 22.0428ZM17.8756 19.5017C18.339 19.475 18.7442 19.1797 18.9113 18.7464C19.4831 17.2639 20.9344 16.2678 22.5229 16.2678C23.9134 16.2678 25.2043 17.0209 25.8918 18.2335C26.0596 18.5294 26.3469 18.7389 26.68 18.8081C27.0129 18.8774 27.3599 18.7998 27.632 18.5953C28.1595 18.1983 28.7835 17.9884 29.437 17.9884C31.0247 17.9884 32.3294 19.224 32.4401 20.784H15.9678C16.3118 20.0631 17.0284 19.5503 17.8756 19.5017Z" fill="#41403C"/>
<path d="M66.3006 32.5763C66.3389 33.2004 66.8561 33.687 67.4812 33.687H91.1518C91.7001 33.687 92.1767 33.3101 92.3029 32.7765C92.4207 32.2778 92.4805 31.7794 92.4805 31.2947C92.4805 28.7195 90.9567 26.4947 88.7641 25.4708C88.7882 25.25 88.8044 25.0279 88.8044 24.8036C88.8044 21.4241 86.055 18.6748 82.6756 18.6748C80.0488 18.6748 77.7614 20.3343 76.9062 22.7381C74.2708 22.9202 71.8939 24.5072 70.7095 26.8598C68.176 27.3555 66.2852 29.5881 66.2852 32.2355C66.2852 32.3316 66.2905 32.4258 66.2972 32.5202L66.3006 32.5763ZM82.6758 21.0401C84.7508 21.0401 86.4391 22.7284 86.4391 24.8033C86.4391 24.8298 86.4367 24.8558 86.4363 24.8821C86.3105 24.8747 86.184 24.8698 86.0563 24.8698C85.0731 24.8698 84.1222 25.0909 83.2534 25.516C82.2584 24.2829 80.898 23.4006 79.3822 22.9862C80.0273 21.8134 81.2716 21.0401 82.6758 21.0401ZM71.5873 29.1279C72.0507 29.1012 72.4558 28.806 72.6229 28.3729C73.3814 26.4063 75.3067 25.0853 77.4135 25.0853C79.2577 25.0853 80.9699 26.0841 81.8817 27.692C82.0494 27.9879 82.3367 28.1974 82.6698 28.2666C83.0027 28.3359 83.3498 28.2582 83.6218 28.0537C84.3327 27.5185 85.1744 27.2357 86.0559 27.2357C88.2941 27.2357 90.1148 29.0565 90.1148 31.2947C90.1148 31.3037 90.1148 31.3125 90.1148 31.3215H68.7872C69.1609 30.1087 70.2581 29.2042 71.5873 29.1279Z" fill="#41403C"/>
</g>
<defs>
<clipPath id="clip0_343_1192">
<rect width="100" height="100" fill="white" transform="translate(0 0.152344)"/>
</clipPath>
</defs>
</svg>
